<?xml version="1.0" standalone="no"?><!DOCTYPE svg PUBLIC "-//W3C//DTD SVG 1.1//EN" "http://www.w3.org/Graphics/SVG/1.1/DTD/svg11.dtd"><svg t="1782460806410" class="icon" viewBox="0 0 1024 1024" version="1.1" xmlns="http://www.w3.org/2000/svg" p-id="32623" xmlns:xlink="http://www.w3.org/1999/xlink" width="48" height="48"><path d="M670.2 533.9l47.1 159.5h-94.7l47.6-159.5zM600 384.5L413.4 943H548l39.9-135h163.6l40.1 134.9H932L745.4 384.4l-145.4 0.1zM456.5 456.1c22.7-27.9 42.1-58.4 57.8-90.8 17.5-37 31.8-75.4 42.7-114.8h89.5V147.1H432.2l-2.5-15c-2.7-16.9-6.3-33.6-10.8-50.1l-3.4-11.3L307.1 82l4.2 16.2c3.8 15.7 6.7 31.7 8.7 47.7v1.2H106v103.3h86.8c11.9 39.5 27 78 45.1 115 16 32.1 35.4 62.3 57.9 90.3a563.56 563.56 0 0 1-79 45.5c-39.5 18.6-79.9 35.2-121.1 49.7L80 556.5l59.1 107.2 11.8-4.9c44.9-18 88.8-38.5 131.3-61.6 33.1-18 64.7-38.8 94.4-62.1 31.8 23.4 65.1 44.7 99.7 63.7L519 492.7c-21.6-10.8-42.5-23-62.5-36.6m-42.7-134c-10.8 21.3-23.8 41.5-38.7 60.2-31.4-39.2-55.2-83.9-70.2-131.8h137.2c-7.4 24.6-16.8 48.6-28.2 71.6" p-id="32624" fill="#6e7079"></path></svg>